<?xml version="1.0" encoding="UTF-8"?>
<svg width="32" height="32" version="1.1" viewBox="0 0 24 24" xmlns="http://www.w3.org/2000/svg">
	<ellipse cx="12" cy="12.042" rx="12" ry="11.958" fill="#d45f00" stroke-width=".75775" />
	<g transform="matrix(.78324 0 0 .78049 .50704 0)" fill="none" fill-rule="evenodd">
		<path
			d="m24 0v24h-24v-24zm-11.407 23.258-0.011 2e-3 -0.071 0.035-0.02 4e-3 -0.014-4e-3 -0.071-0.035c-0.01-4e-3 -0.019-1e-3 -0.024 5e-3l-4e-3 0.01-0.017 0.428 5e-3 0.02 0.01 0.013 0.104 0.074 0.015 4e-3 0.012-4e-3 0.104-0.074 0.012-0.016 4e-3 -0.017-0.017-0.427c-2e-3 -0.01-9e-3 -0.017-0.017-0.018zm0.265-0.113-0.013 2e-3 -0.185 0.093-0.01 0.01-3e-3 0.011 0.018 0.43 5e-3 0.012 8e-3 7e-3 0.201 0.093c0.012 4e-3 0.023 0 0.029-8e-3l4e-3 -0.014-0.034-0.614c-3e-3 -0.012-0.01-0.02-0.02-0.022zm-0.715 2e-3a0.023 0.023 0 0 0-0.027 6e-3l-6e-3 0.014-0.034 0.614c0 0.012 7e-3 0.02 0.017 0.024l0.015-2e-3 0.201-0.093 0.01-8e-3 4e-3 -0.011 0.017-0.43-3e-3 -0.012-0.01-0.01z" />
		<path
			d="m13.011 5.024 1.26 0.756a8.146 8.146 0 0 1 3.48 4.144c0.222-0.5 0.486-0.985 0.731-1.475l0.981 0.981c2.202 2.202 4.293 5.502 4.293 8.707 0 4.298-2.65 7.023-6.89 7.494l-1.39 0.154 0.304-1.365c0.237-1.068 0.28-1.766 0.23-2.255-0.06-0.615-0.352-1.098-0.716-1.578-0.348-0.46-0.693-0.921-0.969-1.43-1.135 0.897-1.575 1.707-1.716 2.374-0.18 0.854 0.075 1.727 0.541 2.659l0.822 1.644-1.826-0.203c-2.576-0.286-5.114-2.007-6.114-4.518-1.045-2.627-0.306-5.806 3.07-8.732 2.24-1.941 3.426-4.458 3.909-7.357zm1.332 3.3c-0.762 2.14-2.225 4.09-3.932 5.569-2.911 2.523-3.172 4.844-2.52 6.48 0.485 1.22 1.532 2.223 2.773 2.792a4.97 4.97 0 0 1-0.012-2.046c0.326-1.546 1.438-2.995 3.574-4.33l1.077-0.673 0.402 1.205c0.352 1.056 1.082 1.803 1.653 2.73 0.628 1.02 0.748 2.19 0.62 3.358 2.62-0.655 3.778-2.642 3.778-5.272 0-2.222-1.34-4.402-2.67-6.106-0.548 1.228-1.703 1.66-2.83 2.224v-1.618c0-1.369-0.557-3.038-1.913-4.312z"
			fill="#500" />
	</g>
</svg>
